<?xml version="1.0" encoding="UTF-8"?>
<!DOCTYPE svg PUBLIC "-//W3C//DTD SVG 1.1//EN" "http://www.w3.org/Graphics/SVG/1.1/DTD/svg11.dtd">
<svg xmlns="http://www.w3.org/2000/svg" version="1.1" width="500px" height="500px" style="shape-rendering:geometricPrecision; text-rendering:geometricPrecision; image-rendering:optimizeQuality; fill-rule:evenodd; clip-rule:evenodd" xmlns:xlink="http://www.w3.org/1999/xlink">
<g><path style="opacity:0.187" fill="#f9faf9" d="M 189.5,122.5 C 229.835,122.333 270.168,122.5 310.5,123C 330.833,150 351.167,177 371.5,204C 393.168,204.508 414.835,205.008 436.5,205.5C 436.009,208.01 435.009,210.344 433.5,212.5C 424.167,224.833 414.833,237.167 405.5,249.5C 414.833,261.833 424.167,274.167 433.5,286.5C 435.494,288.816 436.494,291.482 436.5,294.5C 414.831,294.333 393.164,294.5 371.5,295C 351.167,322 330.833,349 310.5,376C 270.167,376.667 229.833,376.667 189.5,376C 169.622,349.077 149.622,322.244 129.5,295.5C 107.51,294.5 85.5101,294.167 63.5,294.5C 63.4598,291.575 64.2932,288.909 66,286.5C 75.6914,274.309 85.1914,261.976 94.5,249.5C 83.9216,235.343 73.5883,221.01 63.5,206.5C 64.2421,205.713 65.0754,205.047 66,204.5C 69.9177,205.151 73.9177,205.484 78,205.5C 94.8289,204.863 111.662,204.363 128.5,204C 148.964,176.893 169.297,149.726 189.5,122.5 Z M 260.5,217.5 C 260.709,218.922 261.209,220.255 262,221.5C 269.447,230.437 276.28,239.771 282.5,249.5C 272.279,264.564 261.446,279.23 250,293.5C 238.642,278.975 227.475,264.309 216.5,249.5C 227.5,234.833 238.5,220.167 249.5,205.5C 253.174,209.532 256.841,213.532 260.5,217.5 Z"/></g>
<g><path style="opacity:0.999" fill="#275b3a" d="M 191.5,124.5 C 230.501,124.333 269.501,124.5 308.5,125C 329.03,152.351 349.697,179.518 370.5,206.5C 380.438,221.377 391.105,235.711 402.5,249.5C 412.833,263.5 423.167,277.5 433.5,291.5C 412.167,292.167 390.833,292.833 369.5,293.5C 369.167,293.5 368.833,293.5 368.5,293.5C 351.487,293.833 334.487,293.499 317.5,292.5C 307.162,278.173 296.495,264.173 285.5,250.5C 277.519,239.192 269.186,228.192 260.5,217.5C 257.547,212.55 254.214,207.883 250.5,203.5C 231.077,176.988 211.41,150.655 191.5,124.5 Z"/></g>
<g><path style="opacity:0.997" fill="#e7ddd5" d="M 191.5,124.5 C 211.41,150.655 231.077,176.988 250.5,203.5C 248.983,203.511 247.816,204.177 247,205.5C 236.335,220.326 225.502,234.992 214.5,249.5C 203.854,235.568 193.187,221.568 182.5,207.5C 165.179,206.5 147.846,206.167 130.5,206.5C 150.07,178.597 170.403,151.264 191.5,124.5 Z"/></g>
<g><path style="opacity:0.998" fill="#cabd93" d="M 130.5,206.5 C 147.846,206.167 165.179,206.5 182.5,207.5C 193.187,221.568 203.854,235.568 214.5,249.5C 225.424,264.937 236.591,280.27 248,295.5C 248.671,296.252 249.504,296.586 250.5,296.5C 250.351,297.552 250.517,298.552 251,299.5C 270.03,324.685 289.197,349.685 308.5,374.5C 269.669,375.665 230.669,375.831 191.5,375C 170.636,347.315 149.636,319.815 128.5,292.5C 118.065,277.95 107.399,263.617 96.5,249.5C 86.1912,235.518 75.8579,221.518 65.5,207.5C 87.1564,206.5 108.823,206.167 130.5,206.5 Z"/></g>
<g><path style="opacity:0.998" fill="#83a57f" d="M 370.5,206.5 C 391.836,206.333 413.169,206.5 434.5,207C 423.617,221.044 412.95,235.21 402.5,249.5C 391.105,235.711 380.438,221.377 370.5,206.5 Z"/></g>
<g><path style="opacity:0.107" fill="#f8f8f6" d="M 250.5,203.5 C 254.214,207.883 257.547,212.55 260.5,217.5C 269.186,228.192 277.519,239.192 285.5,250.5C 273.359,265.435 261.693,280.769 250.5,296.5C 249.504,296.586 248.671,296.252 248,295.5C 236.591,280.27 225.424,264.937 214.5,249.5C 225.502,234.992 236.335,220.326 247,205.5C 247.816,204.177 248.983,203.511 250.5,203.5 Z M 260.5,217.5 C 256.841,213.532 253.174,209.532 249.5,205.5C 238.5,220.167 227.5,234.833 216.5,249.5C 227.475,264.309 238.642,278.975 250,293.5C 261.446,279.23 272.279,264.564 282.5,249.5C 276.28,239.771 269.447,230.437 262,221.5C 261.209,220.255 260.709,218.922 260.5,217.5 Z"/></g>
<g><path style="opacity:0.999" fill="#84a580" d="M 285.5,250.5 C 296.495,264.173 307.162,278.173 317.5,292.5C 334.487,293.499 351.487,293.833 368.5,293.5C 349.229,321.043 329.229,348.043 308.5,374.5C 289.197,349.685 270.03,324.685 251,299.5C 250.517,298.552 250.351,297.552 250.5,296.5C 261.693,280.769 273.359,265.435 285.5,250.5 Z"/></g>
<g><path style="opacity:0.998" fill="#e8ded6" d="M 96.5,249.5 C 107.399,263.617 118.065,277.95 128.5,292.5C 107.232,293.821 85.8984,293.821 64.5,292.5C 75.9159,278.643 86.5825,264.309 96.5,249.5 Z"/></g>
<g><path style="opacity:0.812" fill="#92ac9b" d="M 433.5,291.5 C 434.043,291.56 434.376,291.893 434.5,292.5C 412.844,293.5 391.177,293.833 369.5,293.5C 390.833,292.833 412.167,292.167 433.5,291.5 Z"/></g>
</svg>
