<?xml version="1.0" standalone="no"?><svg xmlns:xlink="http://www.w3.org/1999/xlink" xmlns="http://www.w3.org/2000/svg" viewBox="0 0 1000 538.4638663600048" preserveAspectRatio="xMaxYMax slice"><g transform="scale(1.1208400023313472)"><rect x="0" y="0" width="892.1955714285714" height="480.41299999999995" fill="#ffffff"/><path d="M 343.15 137.26 A 68.63 68.63 0 0 1  411.78 68.63 L 343.15 137.26 A 68.63 68.63 0 0 0 411.78 68.63" fill="#dbe9d8"/><rect x="480.41299999999995" y="68.63042857142857" width="68.63042857142857" height="68.63042857142857" fill="#ffffff"/><path d="M 514.73 68.63 A 34.32 34.32 0 0 1  549.0500000000001 102.94999999999999 L 514.73 68.63 A 34.32 34.32 0 0 0 549.0500000000001 102.94999999999999" fill="#d7e7d4"/><path d="M 0 137.26 A 68.63 68.63 0 0 1  68.63 205.89 L 0 137.26 A 68.63 68.63 0 0 0 68.63 205.89" fill="#f6f5ed"/><rect x="274.52171428571427" y="137.26085714285713" width="68.63042857142857" height="68.63042857142857" fill="#ffffff"/><path d="M 274.52 205.9 A 34.32 34.32 0 0 1  308.84 171.58 L 274.52 205.9 A 34.32 34.32 0 0 0 308.84 171.58" fill="#e2e0c5"/><rect x="411.7825714285714" y="137.26085714285713" width="68.63042857142857" height="68.63042857142857" fill="#ffffff"/><path d="M 446.1 137.26 A 34.32 34.32 0 0 1  480.42 171.57999999999998 L 446.1 137.26 A 34.32 34.32 0 0 0 480.42 171.57999999999998" fill="#f3f7f2"/><path d="M 480.41 137.26 A 68.63 68.63 0 0 1  549.04 205.89 L 480.41 137.26 A 68.63 68.63 0 0 0 549.04 205.89" fill="#ebead7"/><path d="M 0 274.52 A 68.63 68.63 0 0 1  68.63 205.89 L 0 274.52 A 68.63 68.63 0 0 0 68.63 205.89" fill="#488f3a"/><rect x="68.63042857142857" y="205.8912857142857" width="68.63042857142857" height="68.63042857142857" fill="#ffffff"/><path d="M 68.63 205.89 A 34.32 34.32 0 0 1  102.94999999999999 240.20999999999998 L 68.63 205.89 A 34.32 34.32 0 0 0 102.94999999999999 240.20999999999998" fill="#efeede"/><path d="M 68.63 240.21 A 34.32 34.32 0 0 1  102.94999999999999 274.53000000000003 L 68.63 240.21 A 34.32 34.32 0 0 0 102.94999999999999 274.53000000000003" fill="#ebead8"/><rect x="411.7825714285714" y="205.8912857142857" width="68.63042857142857" height="68.63042857142857" fill="#ffffff"/><path d="M 411.78 274.53000000000003 A 34.32 34.32 0 0 1  446.09999999999997 240.21 L 411.78 274.53000000000003 A 34.32 34.32 0 0 0 446.09999999999997 240.21" fill="#e9e8d3"/><path d="M 446.1 274.53000000000003 A 34.32 34.32 0 0 1  480.42 240.21 L 446.1 274.53000000000003 A 34.32 34.32 0 0 0 480.42 240.21" fill="#d0cda1"/><rect x="617.6738571428571" y="205.8912857142857" width="68.63042857142857" height="68.63042857142857" fill="#ffffff"/><path d="M 617.67 205.89 A 34.32 34.32 0 0 1  651.99 240.20999999999998 L 617.67 205.89 A 34.32 34.32 0 0 0 651.99 240.20999999999998" fill="#c2be84"/><path d="M 617.67 240.21 A 34.32 34.32 0 0 1  651.99 274.53000000000003 L 617.67 240.21 A 34.32 34.32 0 0 0 651.99 274.53000000000003" fill="#d4d2aa"/><path d="M 651.99 274.53000000000003 A 34.32 34.32 0 0 1  686.3100000000001 240.21 L 651.99 274.53000000000003 A 34.32 34.32 0 0 0 686.3100000000001 240.21" fill="#dfdec0"/><rect x="754.9347142857142" y="205.8912857142857" width="68.63042857142857" height="68.63042857142857" fill="#ffffff"/><path d="M 789.25 240.20999999999998 A 34.32 34.32 0 0 1  823.57 205.89 L 789.25 240.20999999999998 A 34.32 34.32 0 0 0 823.57 205.89" fill="#c6c28c"/><path d="M 754.93 274.53000000000003 A 34.32 34.32 0 0 1  789.25 240.21 L 754.93 274.53000000000003 A 34.32 34.32 0 0 0 789.25 240.21" fill="#ebf3e9"/><path d="M 789.25 240.21 A 34.32 34.32 0 0 1  823.57 274.53000000000003 L 789.25 240.21 A 34.32 34.32 0 0 0 823.57 274.53000000000003" fill="#bbb777"/><path d="M 823.57 205.89 A 68.63 68.63 0 0 1  892.2 274.52 L 823.57 205.89 A 68.63 68.63 0 0 0 892.2 274.52" fill="#e8e6d0"/><path d="M 0 274.52 A 68.63 68.63 0 0 1  68.63 343.15 L 0 274.52 A 68.63 68.63 0 0 0 68.63 343.15" fill="#ebe9d6"/><path d="M 137.26 343.15 A 68.63 68.63 0 0 1  205.89 274.52 L 137.26 343.15 A 68.63 68.63 0 0 0 205.89 274.52" fill="#67a25b"/><rect x="205.8912857142857" y="274.52171428571427" width="68.63042857142857" height="68.63042857142857" fill="#ffffff"/><path d="M 205.89 274.52 A 34.32 34.32 0 0 1  240.20999999999998 308.84 L 205.89 274.52 A 34.32 34.32 0 0 0 240.20999999999998 308.84" fill="#abcca5"/><path d="M 240.21 308.84 A 34.32 34.32 0 0 1  274.53000000000003 343.15999999999997 L 240.21 308.84 A 34.32 34.32 0 0 0 274.53000000000003 343.15999999999997" fill="#c6dcc2"/><path d="M 411.78 274.52 A 68.63 68.63 0 0 1  480.40999999999997 343.15 L 411.78 274.52 A 68.63 68.63 0 0 0 480.40999999999997 343.15" fill="#f3f2e7"/><path d="M 480.41 274.52 A 68.63 68.63 0 0 1  549.04 343.15 L 480.41 274.52 A 68.63 68.63 0 0 0 549.04 343.15" fill="#e9e8d3"/><path d="M 617.67 274.52 A 68.63 68.63 0 0 1  686.3 343.15 L 617.67 274.52 A 68.63 68.63 0 0 0 686.3 343.15" fill="#f3f2e7"/><path d="M 754.93 274.52 A 68.63 68.63 0 0 1  823.56 343.15 L 754.93 274.52 A 68.63 68.63 0 0 0 823.56 343.15" fill="#a8caa1"/><path d="M 823.57 343.15 A 68.63 68.63 0 0 1  892.2 274.52 L 823.57 343.15 A 68.63 68.63 0 0 0 892.2 274.52" fill="#d8d5b1"/><rect x="0" y="343.15214285714285" width="68.63042857142857" height="68.63042857142857" fill="#ffffff"/><path d="M 0 343.15 A 34.32 34.32 0 0 1  34.32 377.46999999999997 L 0 343.15 A 34.32 34.32 0 0 0 34.32 377.46999999999997" fill="#d5d3ac"/><path d="M 34.32 343.15 A 34.32 34.32 0 0 1  68.64 377.46999999999997 L 34.32 343.15 A 34.32 34.32 0 0 0 68.64 377.46999999999997" fill="#edecdb"/><path d="M 0 377.47 A 34.32 34.32 0 0 1  34.32 411.79 L 0 377.47 A 34.32 34.32 0 0 0 34.32 411.79" fill="#b4d1ae"/><path d="M 34.32 411.79 A 34.32 34.32 0 0 1  68.64 377.47 L 34.32 411.79 A 34.32 34.32 0 0 0 68.64 377.47" fill="#eae9d5"/><rect x="68.63042857142857" y="343.15214285714285" width="68.63042857142857" height="68.63042857142857" fill="#ffffff"/><path d="M 68.63 377.46999999999997 A 34.32 34.32 0 0 1  102.94999999999999 343.15 L 68.63 377.46999999999997 A 34.32 34.32 0 0 0 102.94999999999999 343.15" fill="#dedcbe"/><path d="M 102.95 377.46999999999997 A 34.32 34.32 0 0 1  137.27 343.15 L 102.95 377.46999999999997 A 34.32 34.32 0 0 0 137.27 343.15" fill="#d8d5b1"/><path d="M 68.63 377.47 A 34.32 34.32 0 0 1  102.94999999999999 411.79 L 68.63 377.47 A 34.32 34.32 0 0 0 102.94999999999999 411.79" fill="#f3f2e6"/><path d="M 102.95 411.79 A 34.32 34.32 0 0 1  137.27 377.47 L 102.95 411.79 A 34.32 34.32 0 0 0 137.27 377.47" fill="#ecebd9"/><path d="M 137.26 411.78 A 68.63 68.63 0 0 1  205.89 343.15 L 137.26 411.78 A 68.63 68.63 0 0 0 205.89 343.15" fill="#e5e4cb"/><rect x="274.52171428571427" y="343.15214285714285" width="68.63042857142857" height="68.63042857142857" fill="#ffffff"/><path d="M 274.52 377.46999999999997 A 34.32 34.32 0 0 1  308.84 343.15 L 274.52 377.46999999999997 A 34.32 34.32 0 0 0 308.84 343.15" fill="#cdca9b"/><path d="M 308.84 343.15 A 34.32 34.32 0 0 1  343.15999999999997 377.46999999999997 L 308.84 343.15 A 34.32 34.32 0 0 0 343.15999999999997 377.46999999999997" fill="#fefefc"/><path d="M 274.52 377.47 A 34.32 34.32 0 0 1  308.84 411.79 L 274.52 377.47 A 34.32 34.32 0 0 0 308.84 411.79" fill="#dddbbb"/><path d="M 308.84 411.79 A 34.32 34.32 0 0 1  343.15999999999997 377.47 L 308.84 411.79 A 34.32 34.32 0 0 0 343.15999999999997 377.47" fill="#d0cda1"/><path d="M 343.15 411.78 A 68.63 68.63 0 0 1  411.78 343.15 L 343.15 411.78 A 68.63 68.63 0 0 0 411.78 343.15" fill="#fafaf5"/><rect x="411.7825714285714" y="343.15214285714285" width="68.63042857142857" height="68.63042857142857" fill="#ffffff"/><path d="M 411.78 377.46999999999997 A 34.32 34.32 0 0 1  446.09999999999997 343.15 L 411.78 377.46999999999997 A 34.32 34.32 0 0 0 446.09999999999997 343.15" fill="#83b37a"/><path d="M 446.1 377.46999999999997 A 34.32 34.32 0 0 1  480.42 343.15 L 446.1 377.46999999999997 A 34.32 34.32 0 0 0 480.42 343.15" fill="#b9d4b4"/><path d="M 411.78 411.79 A 34.32 34.32 0 0 1  446.09999999999997 377.47 L 411.78 411.79 A 34.32 34.32 0 0 0 446.09999999999997 377.47" fill="#e1eddf"/><path d="M 480.41 411.78 A 68.63 68.63 0 0 1  549.04 343.15 L 480.41 411.78 A 68.63 68.63 0 0 0 549.04 343.15" fill="#c4c088"/><rect x="549.0434285714285" y="343.15214285714285" width="68.63042857142857" height="68.63042857142857" fill="#ffffff"/><path d="M 549.04 343.15 A 34.32 34.32 0 0 1  583.36 377.46999999999997 L 549.04 343.15 A 34.32 34.32 0 0 0 583.36 377.46999999999997" fill="#e9e8d3"/><path d="M 583.36 377.46999999999997 A 34.32 34.32 0 0 1  617.6800000000001 343.15 L 583.36 377.46999999999997 A 34.32 34.32 0 0 0 617.6800000000001 343.15" fill="#92bc89"/><path d="M 583.36 411.79 A 34.32 34.32 0 0 1  617.6800000000001 377.47 L 583.36 411.79 A 34.32 34.32 0 0 0 617.6800000000001 377.47" fill="#a6c99f"/><path d="M 617.67 411.78 A 68.63 68.63 0 0 1  686.3 343.15 L 617.67 411.78 A 68.63 68.63 0 0 0 686.3 343.15" fill="#63a057"/><rect x="686.3042857142857" y="343.15214285714285" width="68.63042857142857" height="68.63042857142857" fill="#ffffff"/><path d="M 686.3 377.46999999999997 A 34.32 34.32 0 0 1  720.62 343.15 L 686.3 377.46999999999997 A 34.32 34.32 0 0 0 720.62 343.15" fill="#418b33"/><path d="M 720.62 343.15 A 34.32 34.32 0 0 1  754.94 377.46999999999997 L 720.62 343.15 A 34.32 34.32 0 0 0 754.94 377.46999999999997" fill="#d0e2cd"/><path d="M 686.3 377.47 A 34.32 34.32 0 0 1  720.62 411.79 L 686.3 377.47 A 34.32 34.32 0 0 0 720.62 411.79" fill="#fafaf6"/><path d="M 720.62 411.79 A 34.32 34.32 0 0 1  754.94 377.47 L 720.62 411.79 A 34.32 34.32 0 0 0 754.94 377.47" fill="#a8caa1"/><rect x="823.5651428571427" y="343.15214285714285" width="68.63042857142857" height="68.63042857142857" fill="#ffffff"/><path d="M 823.57 377.46999999999997 A 34.32 34.32 0 0 1  857.8900000000001 343.15 L 823.57 377.46999999999997 A 34.32 34.32 0 0 0 857.8900000000001 343.15" fill="#93bd8a"/><path d="M 857.88 377.46999999999997 A 34.32 34.32 0 0 1  892.2 343.15 L 857.88 377.46999999999997 A 34.32 34.32 0 0 0 892.2 343.15" fill="#e9f2e8"/><path d="M 823.57 411.79 A 34.32 34.32 0 0 1  857.8900000000001 377.47 L 823.57 411.79 A 34.32 34.32 0 0 0 857.8900000000001 377.47" fill="#dfddbf"/><path d="M 857.88 411.79 A 34.32 34.32 0 0 1  892.2 377.47 L 857.88 411.79 A 34.32 34.32 0 0 0 892.2 377.47" fill="#d0cda1"/><rect x="0" y="411.7825714285714" width="68.63042857142857" height="68.63042857142857" fill="#ffffff"/><path d="M 0 411.78 A 34.32 34.32 0 0 1  34.32 446.09999999999997 L 0 411.78 A 34.32 34.32 0 0 0 34.32 446.09999999999997" fill="#dbd9b8"/><path d="M 34.32 446.09999999999997 A 34.32 34.32 0 0 1  68.64 411.78 L 34.32 446.09999999999997 A 34.32 34.32 0 0 0 68.64 411.78" fill="#aacba4"/><path d="M 0 446.1 A 34.32 34.32 0 0 1  34.32 480.42 L 0 446.1 A 34.32 34.32 0 0 0 34.32 480.42" fill="#fbfbf7"/><path d="M 34.32 446.1 A 34.32 34.32 0 0 1  68.64 480.42 L 34.32 446.1 A 34.32 34.32 0 0 0 68.64 480.42" fill="#71a866"/><rect x="68.63042857142857" y="411.7825714285714" width="68.63042857142857" height="68.63042857142857" fill="#ffffff"/><path d="M 68.63 446.09999999999997 A 34.32 34.32 0 0 1  102.94999999999999 411.78 L 68.63 446.09999999999997 A 34.32 34.32 0 0 0 102.94999999999999 411.78" fill="#6ba45f"/><path d="M 102.95 411.78 A 34.32 34.32 0 0 1  137.27 446.09999999999997 L 102.95 411.78 A 34.32 34.32 0 0 0 137.27 446.09999999999997" fill="#fefefe"/><path d="M 68.63 446.1 A 34.32 34.32 0 0 1  102.94999999999999 480.42 L 68.63 446.1 A 34.32 34.32 0 0 0 102.94999999999999 480.42" fill="#93bd8a"/><path d="M 102.95 480.42 A 34.32 34.32 0 0 1  137.27 446.1 L 102.95 480.42 A 34.32 34.32 0 0 0 137.27 446.1" fill="#e7e6cf"/><path d="M 137.26 480.40999999999997 A 68.63 68.63 0 0 1  205.89 411.78 L 137.26 480.40999999999997 A 68.63 68.63 0 0 0 205.89 411.78" fill="#a6c89f"/><path d="M 205.89 480.40999999999997 A 68.63 68.63 0 0 1  274.52 411.78 L 205.89 480.40999999999997 A 68.63 68.63 0 0 0 274.52 411.78" fill="#ffffff"/><rect x="274.52171428571427" y="411.7825714285714" width="68.63042857142857" height="68.63042857142857" fill="#ffffff"/><path d="M 274.52 411.78 A 34.32 34.32 0 0 1  308.84 446.09999999999997 L 274.52 411.78 A 34.32 34.32 0 0 0 308.84 446.09999999999997" fill="#d1e3cd"/><path d="M 308.84 411.78 A 34.32 34.32 0 0 1  343.15999999999997 446.09999999999997 L 308.84 411.78 A 34.32 34.32 0 0 0 343.15999999999997 446.09999999999997" fill="#5c9b4f"/><path d="M 274.52 446.1 A 34.32 34.32 0 0 1  308.84 480.42 L 274.52 446.1 A 34.32 34.32 0 0 0 308.84 480.42" fill="#ecead8"/><path d="M 308.84 480.42 A 34.32 34.32 0 0 1  343.15999999999997 446.1 L 308.84 480.42 A 34.32 34.32 0 0 0 343.15999999999997 446.1" fill="#fcfbf8"/><path d="M 343.15 480.40999999999997 A 68.63 68.63 0 0 1  411.78 411.78 L 343.15 480.40999999999997 A 68.63 68.63 0 0 0 411.78 411.78" fill="#c9c694"/><path d="M 411.78 411.78 A 68.63 68.63 0 0 1  480.40999999999997 480.40999999999997 L 411.78 411.78 A 68.63 68.63 0 0 0 480.40999999999997 480.40999999999997" fill="#d7d5af"/><rect x="480.41299999999995" y="411.7825714285714" width="68.63042857142857" height="68.63042857142857" fill="#ffffff"/><path d="M 480.41 446.09999999999997 A 34.32 34.32 0 0 1  514.73 411.78 L 480.41 446.09999999999997 A 34.32 34.32 0 0 0 514.73 411.78" fill="#f6f5ec"/><path d="M 514.73 411.78 A 34.32 34.32 0 0 1  549.0500000000001 446.09999999999997 L 514.73 411.78 A 34.32 34.32 0 0 0 549.0500000000001 446.09999999999997" fill="#94bd8b"/><path d="M 480.41 446.1 A 34.32 34.32 0 0 1  514.73 480.42 L 480.41 446.1 A 34.32 34.32 0 0 0 514.73 480.42" fill="#9dc396"/><path d="M 514.73 446.1 A 34.32 34.32 0 0 1  549.0500000000001 480.42 L 514.73 446.1 A 34.32 34.32 0 0 0 549.0500000000001 480.42" fill="#c7c48f"/><path d="M 549.04 411.78 A 68.63 68.63 0 0 1  617.67 480.40999999999997 L 549.04 411.78 A 68.63 68.63 0 0 0 617.67 480.40999999999997" fill="#cdca9b"/><path d="M 617.67 480.40999999999997 A 68.63 68.63 0 0 1  686.3 411.78 L 617.67 480.40999999999997 A 68.63 68.63 0 0 0 686.3 411.78" fill="#edf4eb"/><rect x="686.3042857142857" y="411.7825714285714" width="68.63042857142857" height="68.63042857142857" fill="#ffffff"/><path d="M 686.3 411.78 A 34.32 34.32 0 0 1  720.62 446.09999999999997 L 686.3 411.78 A 34.32 34.32 0 0 0 720.62 446.09999999999997" fill="#c5dcc1"/><path d="M 720.62 446.09999999999997 A 34.32 34.32 0 0 1  754.94 411.78 L 720.62 446.09999999999997 A 34.32 34.32 0 0 0 754.94 411.78" fill="#87b67e"/><path d="M 686.3 446.1 A 34.32 34.32 0 0 1  720.62 480.42 L 686.3 446.1 A 34.32 34.32 0 0 0 720.62 480.42" fill="#d0e3cd"/><path d="M 720.62 480.42 A 34.32 34.32 0 0 1  754.94 446.1 L 720.62 480.42 A 34.32 34.32 0 0 0 754.94 446.1" fill="#c7c48f"/><rect x="754.9347142857142" y="411.7825714285714" width="68.63042857142857" height="68.63042857142857" fill="#ffffff"/><path d="M 754.93 411.78 A 34.32 34.32 0 0 1  789.25 446.09999999999997 L 754.93 411.78 A 34.32 34.32 0 0 0 789.25 446.09999999999997" fill="#b8d4b3"/><path d="M 789.25 446.09999999999997 A 34.32 34.32 0 0 1  823.57 411.78 L 789.25 446.09999999999997 A 34.32 34.32 0 0 0 823.57 411.78" fill="#cbc897"/><path d="M 754.93 446.1 A 34.32 34.32 0 0 1  789.25 480.42 L 754.93 446.1 A 34.32 34.32 0 0 0 789.25 480.42" fill="#408a31"/><path d="M 789.25 480.42 A 34.32 34.32 0 0 1  823.57 446.1 L 789.25 480.42 A 34.32 34.32 0 0 0 823.57 446.1" fill="#abcca4"/><rect x="823.5651428571427" y="411.7825714285714" width="68.63042857142857" height="68.63042857142857" fill="#ffffff"/><path d="M 823.57 411.78 A 34.32 34.32 0 0 1  857.8900000000001 446.09999999999997 L 823.57 411.78 A 34.32 34.32 0 0 0 857.8900000000001 446.09999999999997" fill="#d4e5d1"/><path d="M 857.88 411.78 A 34.32 34.32 0 0 1  892.2 446.09999999999997 L 857.88 411.78 A 34.32 34.32 0 0 0 892.2 446.09999999999997" fill="#d6d4ad"/><path d="M 823.57 446.1 A 34.32 34.32 0 0 1  857.8900000000001 480.42 L 823.57 446.1 A 34.32 34.32 0 0 0 857.8900000000001 480.42" fill="#bcb879"/><path d="M 857.88 446.1 A 34.32 34.32 0 0 1  892.2 480.42 L 857.88 446.1 A 34.32 34.32 0 0 0 892.2 480.42" fill="#d9d7b3"/></g></svg>